<svg width="200" height="200" viewBox="0 0 200 200" fill="none" xmlns="http://www.w3.org/2000/svg">
<path fill-rule="evenodd" clip-rule="evenodd" d="M100 183.333C53.975 183.333 16.6666 146.025 16.6666 100C16.6666 53.975 53.975 16.6666 100 16.6666C146.025 16.6666 183.333 53.975 183.333 100C183.333 146.025 146.025 183.333 100 183.333ZM100 173.333C119.449 173.333 138.102 165.607 151.854 151.854C165.607 138.102 173.333 119.449 173.333 100C173.333 80.5508 165.607 61.8981 151.854 48.1455C138.102 34.3928 119.449 26.6666 100 26.6666C80.5508 26.6666 61.8981 34.3928 48.1455 48.1455C34.3928 61.8981 26.6666 80.5508 26.6666 100C26.6666 119.449 34.3928 138.102 48.1455 151.854C61.8981 165.607 80.5508 173.333 100 173.333ZM90.2333 121.317L138.642 72.9166L145.708 79.9916L96.125 129.575C94.5622 131.137 92.443 132.015 90.2333 132.015C88.0236 132.015 85.9044 131.137 84.3416 129.575L58.3333 103.55L65.4083 96.475L90.2416 121.308L90.2333 121.317Z" fill="white"/>
</svg>
