<svg width="32" height="30" viewBox="0 0 32 30" fill="none" xmlns="http://www.w3.org/2000/svg">
<path d="M15.9772 20.1124L20.8402 25.6414C22.6402 27.6888 23.5417 28.7133 24.4852 28.4628C25.4272 28.2138 25.7512 26.8669 26.3977 24.1714L29.9827 9.2194C30.9802 5.06741 31.4783 2.99292 30.3712 1.96842C29.2642 0.943927 27.3457 1.70592 23.5087 3.22842L5.70963 10.2979C2.64062 11.5174 1.10611 12.1264 1.00861 13.1734C0.997129 13.2801 0.997129 13.3877 1.00861 13.4944C1.10311 14.5429 2.63462 15.1564 5.70063 16.3849C7.08814 16.9414 7.78264 17.2204 8.28065 17.7529C8.33665 17.8129 8.39065 17.8749 8.44265 17.9389C8.90165 18.5089 9.09665 19.2589 9.48815 20.7529L10.2217 23.5534C10.6012 25.0084 10.7917 25.7374 11.2912 25.8364C11.7907 25.9354 12.2242 25.3324 13.0927 24.1249L15.9772 20.1124ZM15.9772 20.1124L15.5017 19.6174C14.9587 19.0504 14.6872 18.7684 14.6872 18.4174C14.6872 18.0664 14.9572 17.7829 15.5017 17.2174L20.8612 11.6314" stroke="white" stroke-width="1.5" stroke-linecap="round" stroke-linejoin="round"/>
</svg>
