<svg width="94" height="134" viewBox="0 0 94 134" fill="none" xmlns="http://www.w3.org/2000/svg">
<path fill-rule="evenodd" clip-rule="evenodd" d="M50.0334 16.6252C57.3409 13.2659 60.3985 6.67342 61.8331 3.58019C61.8977 3.44103 61.9589 3.30895 62.0172 3.18456C64.3003 10.7361 59.6748 17.0844 58.1645 18.5902C60.9551 17.7659 69.4578 13.9843 72.9388 8.86525C75.4503 16.7902 67.7661 23.3727 63.2848 25.1825C68.5754 27.4047 76.9613 33.3755 79.0209 44.4061C77.7471 42.0431 74.2759 37.3777 69.8743 35.9837C70.0968 36.2502 70.3309 36.526 70.5741 36.8122C74.474 41.4046 80.6823 48.7152 78.033 64.6113C77.4087 58.7842 75.6949 52.9572 73.3667 50.9345C75.4562 58.7747 74.5552 75.2813 55.0645 83.4488C56.7247 81.9665 59.6498 78.6354 61.108 74.8215C55.3437 80.1012 43.0345 86.8742 28.5723 81.3988C30.0799 81.511 34.5573 81.2383 37.8747 78.9834C28.8258 76.9752 19.4593 70.4555 14.9213 55.7864C17.5068 59.6609 20.2653 62.6482 23.0869 64.8497C30.5062 68.2834 37.3229 64.5318 39.8038 62.2267C38.6592 66.9958 34.2399 68.9494 32.1734 69.3301C41.356 71.421 49.9733 66.3844 54.2784 57.6849C59.9142 46.2964 52.3361 39.4345 47.8426 37.4271C50.9741 41.0624 50.1122 45.167 49.2897 46.7649C47.4469 40.9498 41.359 39.0898 38.5454 38.8867C42.3621 40.8669 43.982 45.198 44.3149 47.1161C30.8182 38.1869 21.5717 45.4744 18.6355 50.2342C19.696 45.339 19.9 42.5126 18.2488 36.0011C16.9279 30.7919 27.0502 28.35 32.2765 27.7803C31.2044 24.1241 34.1965 22.4518 39.1083 20.6565L31.1169 5.62957L41.3956 14.5561L40.9434 8.71967L44.6635 13.3418L46.2671 0L50.0334 16.6252ZM11.4701 98.4139L0 112.451V114.75H15.0528V112.103H3.85011L15.0261 98.0663V95.7669H0.267368V98.4139H11.4701ZM18.1252 114.75V95.7669H21.1198V114.75H18.1252ZM25.4099 95.7669V114.75H38.5912V112.103H28.4044V95.7669H25.4099ZM46.5046 95.7669H49.3387L56.7181 114.75H53.5631L51.5579 109.59H44.232L42.2535 114.75H39.0718L46.5046 95.7669ZM50.9697 107.371L47.9217 99.0555L44.7667 107.371H50.9697ZM62.0603 114.75V101.328L72.6749 114.75H75.2951V95.7936H72.2738V109.483L61.5256 95.7669H59.0658V114.75H62.0603ZM87.1825 98.4139H93.4924V95.7669H77.8246V98.4139H84.1612V114.75H87.1825V98.4139ZM69.9329 133.193V125.466L66.4972 131.469H65.909L62.46 125.466V133.193H61.5242V123.702H62.4867L66.1898 130.199L69.9195 123.702H70.8687V133.193H69.9329ZM56.2199 123.702H55.4311L51.4607 133.193H52.4633L53.6799 130.225H57.9444L59.1743 133.193H60.1635L56.2199 123.702ZM55.8188 124.798L57.7305 129.49H53.8804L55.8188 124.798ZM50.7205 132.364V133.193H44.3438V123.702H50.6002V124.53H45.2795V127.953H49.9184V128.742H45.2795V132.364H50.7205ZM39.5398 124.53H42.922V123.702H35.2218V124.53H38.604V133.193H39.5398V124.53ZM32.1386 124.53H28.7564V133.193H27.8206V124.53H24.4384V123.702H32.1386V124.53ZM22.0847 123.702V133.193H23.0205V123.702H22.0847ZM69.6579 36.2093C69.6033 36.0963 69.5482 35.9838 69.4928 35.8718C69.5541 35.8883 69.6153 35.9055 69.6763 35.9233L69.669 36.0324C69.6667 36.0679 69.6644 36.1037 69.6622 36.1398C69.6608 36.1628 69.6593 36.186 69.6579 36.2093ZM42.8197 28.605C45.1089 26.5066 44.4094 23.9154 43.7735 22.8821C43.5351 23.518 42.7722 24.9805 41.6276 25.7435C41.3908 25.9014 41.1083 26.0854 40.8006 26.2858L40.8 26.2862C39.2486 27.2965 37.0575 28.7234 36.8586 29.3203C40.6738 27.2219 42.4224 27.9691 42.8197 28.605Z" fill="white"/>
</svg>
