<svg width="20" height="13" viewBox="0 0 20 13" fill="none" xmlns="http://www.w3.org/2000/svg">
<path d="M1.11111 13C0.7963 13 0.532596 12.896 0.320004 12.688C0.107411 12.48 0.000744572 12.2229 3.83141e-06 11.9167C-0.000736909 11.6104 0.10593 11.3533 0.320004 11.1453C0.534078 10.9373 0.797781 10.8333 1.11111 10.8333H18.8889C19.2037 10.8333 19.4678 10.9373 19.6811 11.1453C19.8944 11.3533 20.0007 11.6104 20 11.9167C19.9993 12.2229 19.8926 12.4803 19.68 12.6891C19.4674 12.8978 19.2037 13.0014 18.8889 13H1.11111ZM1.11111 7.58333C0.7963 7.58333 0.532596 7.47933 0.320004 7.27133C0.107411 7.06333 0.000744572 6.80621 3.83141e-06 6.49999C-0.000736909 6.19377 0.10593 5.93666 0.320004 5.72866C0.534078 5.52066 0.797781 5.41666 1.11111 5.41666H18.8889C19.2037 5.41666 19.4678 5.52066 19.6811 5.72866C19.8944 5.93666 20.0007 6.19377 20 6.49999C19.9993 6.80621 19.8926 7.06369 19.68 7.27241C19.4674 7.48113 19.2037 7.58477 18.8889 7.58333H1.11111ZM1.11111 2.16666C0.7963 2.16666 0.532596 2.06266 0.320004 1.85466C0.107411 1.64666 0.000744572 1.38955 3.83141e-06 1.08333C-0.000736909 0.77711 0.10593 0.52 0.320004 0.312C0.534078 0.104 0.797781 0 1.11111 0H18.8889C19.2037 0 19.4678 0.104 19.6811 0.312C19.8944 0.52 20.0007 0.77711 20 1.08333C19.9993 1.38955 19.8926 1.64703 19.68 1.85575C19.4674 2.06447 19.2037 2.16811 18.8889 2.16666H1.11111Z" fill="white"/>
</svg>
